[img]http://hostpicturefree.com/images/bannerlnl.gif[/img]

Cover:

[img]http://ia.media-imdb.com/images/M/MV5BMTY0NTkwNTc4Nl5BMl5BanBnXkFtZTcwMTUzNjI5Ng@@._V1._SY317_CR4,0,214,317_.jpg[/img]

Release info:

General
Format                                   : Matroska
Format version                           : Version 2
File size                                : 1.46 GiB
Duration                                 : 1h 42mn
Overall bit rate                         : 2 037 Kbps


Video
ID                                       : 1
Format                                   : AVC
Format/Info                              : Advanced Video Codec
Format profile                           : High@L4.1
Format settings, CABAC                   : Yes
Format settings, ReFrames                : 4 frames
Muxing mode                              : Header stripping
Codec ID                                 : V_MPEG4/ISO/AVC
Duration                                 : 1h 42mn
Bit rate                                 : 1 651 Kbps
Width                                    : 720 pixels
Height                                   : 304 pixels
Display aspect ratio                     : 2.35:1
Frame rate mode                          : Constant
Frame rate                               : 25.000 fps
Color space                              : YUV
Chroma subsampling                       : 4:2:0
Bit depth                                : 8 bits
Scan type                                : Progressive
Bits/(Pixel*Frame)                       : 0.302
Stream size                              : 1.15 GiB (79%)
Language                                 : Mandarin
Default                                  : Yes
Forced                                   : No

Audio
ID                                       : 2
Format                                   : AC-3
Format/Info                              : Audio Coding 3
Mode extension                           : CM (complete main)
Format settings, Endianness              : Big
Muxing mode                              : Header stripping
Codec ID                                 : A_AC3
Duration                                 : 1h 42mn
Bit rate mode                            : Constant
Bit rate                                 : 384 Kbps
Channel(s)                               : 6 channels
Channel positions                        : Front: L C R, Side: L R, LFE
Sampling rate                            : 48.0 KHz
Bit depth                                : 16 bits
Compression mode                         : Lossy
Stream size                              : 281 MiB (19%)
Language                                 : Mandarin
Default                                  : Yes
Forced                                   : No

Text
ID                                       : 3
Format                                   : UTF-8
Codec ID                                 : S_TEXT/UTF8
Codec ID/Info                            : UTF-8 Plain Text
Language                                 : English
Default                                  : Yes
Forced                                   : No



Source:
credit to original movie ripper ZERO (Thanks)

IMDB Info:

Description: Action director Ching Siu-Tung helms this fantasy film based on an old Chinese legend about... 

Director: Siu-Tung Ching
Stars: Jet Li, Shengyi Huang and Raymond Lam 

Genres: Action | Fantasy 
http://www.imdb.com/title/tt1857913/


Screen Shot:

 
http://www.shotpix.com/images/20153745135088331907.png 
http://www.shotpix.com/images/18402483869130669330.png 
http://www.shotpix.com/images/89025333637343619380.png 
http://www.shotpix.com/images/39866051444201874141.png 
http://www.shotpix.com/images/01038490950606536801.png 
http://www.shotpix.com/images/61499754418484715796.png